<svg width="178" height="41" viewBox="0 0 178 41" fill="none" xmlns="http://www.w3.org/2000/svg">
<path fill-rule="evenodd" clip-rule="evenodd" d="M63.2197 0.394531H57.4193C53.2389 0.394531 49.999 3.0612 49.999 8.87453V16.8745V23.0612V25.7279V40.3945H57.8374V25.7279H63.2197V16.8745H57.8374V12.5012C57.8374 10.2079 58.2554 9.3012 59.8753 9.3012H63.2197V0.394531ZM67.2259 40.3945H75.2385V0.394531H67.2259V40.3945ZM79.2447 8.39453C79.2447 6.16726 81.0202 4.39453 83.251 4.39453C85.4362 4.39453 87.2572 6.16726 87.2572 8.39453C87.2572 10.5763 85.4362 12.3945 83.251 12.3945C81.0202 12.3945 79.2447 10.5763 79.2447 8.39453ZM79.2447 16.3945V40.3945H87.2572V16.3945H79.2447Z" fill="#01E9B5"/>
<path fill-rule="evenodd" clip-rule="evenodd" d="M173.993 0.394531V19.4501C171.867 17.5499 169.059 16.3945 165.98 16.3945C159.343 16.3945 153.962 21.7671 153.962 28.3945C153.962 35.0219 159.343 40.3945 165.98 40.3945C172.529 40.3945 177.854 35.1655 177.996 28.6612H177.999V0.394531H173.993ZM144.445 33.0612H149.013C147.189 37.3705 142.917 40.3945 137.937 40.3945C131.299 40.3945 125.918 35.0219 125.918 28.3945C125.918 21.7671 131.299 16.3945 137.937 16.3945C144.574 16.3945 149.955 21.7671 149.955 28.3945C149.955 29.076 149.898 29.7441 149.789 30.3945H143.278H130.177C131.066 33.845 134.203 36.3945 137.937 36.3945C140.617 36.3945 142.991 35.08 144.445 33.0612ZM145.697 26.3945C144.807 22.9441 141.67 20.3945 137.937 20.3945C134.203 20.3945 131.066 22.9441 130.177 26.3945H145.697ZM165.98 36.3945C170.406 36.3945 173.993 32.8128 173.993 28.3945C173.993 23.9763 170.406 20.3945 165.98 20.3945C161.555 20.3945 157.968 23.9763 157.968 28.3945C157.968 32.8128 161.555 36.3945 165.98 36.3945ZM108.586 40.3945V25.0511C108.586 22.4793 110.674 20.3945 113.25 20.3945C115.826 20.3945 117.914 22.4793 117.914 25.0511V40.3945H121.912V25.0424C121.912 20.2663 118.034 16.3945 113.25 16.3945C110.571 16.3945 108.176 17.6089 106.588 19.5163C104.999 17.6089 102.604 16.3945 99.925 16.3945C95.1415 16.3945 91.2637 20.2663 91.2637 25.0424V40.3945H95.2612V25.0511C95.2612 22.4793 97.3493 20.3945 99.925 20.3945C102.501 20.3945 104.589 22.4793 104.589 25.0511V40.3945H108.586Z" fill="#416888"/>
<circle cx="19.999" cy="20.3945" r="20" fill="white"/>
<path d="M15.2565 16.1412V9.19434H24.7153V11.1698C24.7153 12.9196 24.3034 14.7264 23.4795 16.5902C22.2436 19.3859 20.5843 20.9244 18.9128 23.5221C17.7985 25.2539 17.2304 27.2755 17.2083 29.587H22.7897V22.5814C22.8675 20.7321 23.6043 19.1118 25.0003 17.7203C26.1117 16.6125 27.8225 16.0585 30.1327 16.0585H31.999V25.2146H26.6777V23.2454H30.0635V18.2329C28.491 18.3007 27.2425 18.7631 26.3182 19.6202C24.9317 20.9058 24.7054 22.4508 24.7155 23.2454C24.7155 23.7218 24.7155 24.3781 24.7155 25.2146V25.4437C24.7155 25.4634 24.7155 25.4832 24.7155 25.5031L24.7207 31.5943H15.2565V29.587C15.3495 26.7336 16.3549 24.0252 18.2727 21.462C19.9661 19.1987 20.543 18.6044 21.7481 16.0585C22.5515 14.3613 22.8987 12.7317 22.7897 11.1698H17.2083V17.7203C17.102 20.3983 16.3107 22.3322 14.8345 23.5221C13.3583 24.7119 11.696 25.2761 9.84749 25.2146H7.99902V16.1412H13.3046V18.1327H9.93451V23.1452C11.4998 23.0774 12.7424 22.615 13.6625 21.7579C15.0425 20.4723 15.2564 18.8456 15.2564 18.1327C15.2564 17.6994 15.2564 17.0355 15.2564 16.1412H15.2565Z" fill="#01E9B5"/>
</svg>
